{"title":"Madagascar.3.Europes.Most.Wanted.2012.Cam.V2.XviD-Feel-Free","uid":7352065,"size":896182720,"categoryP":"video","categoryS":"movies","magnet":"?xt=urn:btih:54261d675465d3b4b639901387e9ba60d495c147&amp;dn=Madagascar.3.Europes.Most.Wanted.2012.Cam.V2.XviD-Feel-Free&amp;tr=udp%3A%2F%2Ftracker.openbittorrent.com%3A80&amp;tr=udp%3A%2F%2Fopen.demonii.com%3A1337&amp;tr=udp%3A%2F%2Ftracker.coppersurfer.tk%3A6969&amp;tr=udp%3A%2F%2Fexodus.desync.com%3A6969","seeders":1,"leechers":0,"uploader":"maximersk","files":9,"time":1339636803,"description":"Madagascar.3.Europes.Most.Wanted.2012.Cam.V2.XviD-Feel-Free\n\n\n\n\n\nAlex, Marty, Gloria and Melman are still fighting to get home to their beloved Big Apple. Their journey takes them through Europe where they find the perfect cover: a traveling circus, which they reinvent - Madagascar style. \n\nGenre:Animation | Adventure | Comedy\nLanguage:English\nIMDb:http://www.imdb.com/title/tt1277953/\nSource:Spanish/26k Thanks!\nEncoder:Tony\n\n\nFormat : AVI\nFormat/Info : Audio Video Interleave\nFile size : 853 MiB\nDuration : 1h 23mn\nOverall bit rate mode : Variable\nOverall bit rate : 1 435 Kbps\nWriting application : Lavf52.61.0\n\nVideo\nID : 0\nFormat : MPEG-4 Visual\nFormat profile : Advanced Simple@L5\nFormat settings, BVOP : 2\nFormat settings, QPel : No\nFormat settings, GMC : No warppoints\nFormat settings, Matrix : Default (H.263)\nMuxing mode : Packed bitstream\nCodec ID : XVID\nCodec ID/Hint : XviD\nDuration : 1h 23mn\nBit rate : 1 274 Kbps\nWidth : 640 pixels\nHeight : 352 pixels\nDisplay aspect ratio : 16:9\nFrame rate : 29.970 fps\nColor space : YUV\nChroma subsampling : 4:2:0\nBit depth : 8 bits\nScan type : Progressive\nCompression mode : Lossy\nBits/(Pixel*Frame) : 0.189\nStream size : 758 MiB (89%)\nWriting library : XviD 64\n\nAudio\nID : 1\nFormat : MPEG Audio\nFormat version : Version 1\nFormat profile : Layer 3\nCodec ID : 55\nCodec ID/Hint : MP3\nDuration : 1h 23mn\nBit rate mode : Variable\nBit rate : 146 Kbps\nChannel(s) : 2 channels\nSampling rate : 48.0 KHz\nCompression mode : Lossy\nStream size : 87.1 MiB (10%)\nAlignment : Aligned on interleaves\nInterleave, duration : 24 ms (0.72 video frame)\nInterleave, preload duration : 671 ms","torrent":{"xt":"urn:btih:54261d675465d3b4b639901387e9ba60d495c147","amp;dn":"Madagascar.3.Europes.Most.Wanted.2012.Cam.V2.XviD-Feel-Free","amp;tr":["udp%3A%2F%2Ftracker.openbittorrent.com%3A80","udp%3A%2F%2Fopen.demonii.com%3A1337","udp%3A%2F%2Ftracker.coppersurfer.tk%3A6969","udp%3A%2F%2Fexodus.desync.com%3A6969"],"infoHash":"54261d675465d3b4b639901387e9ba60d495c147","infoHashBuffer":{"type":"Buffer","data":[84,38,29,103,84,101,211,180,182,57,144,19,135,233,186,96,212,149,193,71]},"announce":[],"urlList":[]}}